<svg width="200" height="112" viewBox="0 0 200 112" fill="none" xmlns="http://www.w3.org/2000/svg">
<rect x="6" y="38" width="7" height="37" fill="white"/>
<rect x="180" y="34" width="13" height="44" fill="white"/>
<rect x="17" y="10" width="163" height="92" fill="white"/>
<path d="M0.0351563 93.25C0.0351563 103.568 6.9728 111.873 15.5898 111.873L184.412 111.873C193.029 111.873 199.965 103.568 199.965 93.25V18.7499C199.965 8.43213 193.029 0.126907 184.412 0.126907L15.5898 0.126907C6.9728 0.126907 0.0351563 8.43213 0.0351563 18.7499L0.0351563 93.25ZM8.03711 69.1835L8.03711 42.8163C8.03711 41.7083 8.88815 40.8163 9.94727 40.8163C11.0064 40.8163 11.8594 41.7083 11.8594 42.8163L11.8594 69.1835C11.8594 70.2915 11.0064 71.1835 9.94727 71.1835C8.88815 71.1835 8.03711 70.2915 8.03711 69.1835ZM18.5645 92.0527L18.5645 19.9492C18.5645 16.0072 21.082 12.8339 24.2109 12.8339L167.787 12.8339C170.916 12.8339 173.436 16.0072 173.436 19.9492V92.0527C173.436 95.9947 170.916 99.1679 167.787 99.1679L24.2109 99.1679C21.082 99.1679 18.5645 95.9947 18.5645 92.0527ZM182.018 69.1835V42.8163C182.018 41.7083 182.91 40.8163 184.018 40.8163H189.109C190.217 40.8163 191.109 41.7083 191.109 42.8163V69.1835C191.109 70.2915 190.217 71.1835 189.109 71.1835H184.018C182.91 71.1835 182.018 70.2915 182.018 69.1835Z" fill="#2196F3"/>
</svg>
