<svg width="32" height="32" viewBox="0 0 32 32" fill="none" xmlns="http://www.w3.org/2000/svg">
<path fill-rule="evenodd" clip-rule="evenodd" d="M16 32C24.8366 32 32 24.8366 32 16C32 7.16344 24.8366 0 16 0C7.16344 0 0 7.16344 0 16C0 24.8366 7.16344 32 16 32ZM13.4812 8.78105C12.9889 8.28095 12.3212 8 11.625 8C10.9288 8 10.2611 8.28095 9.76884 8.78105C9.27656 9.28115 9 9.95942 9 10.6667V21.3333C9 22.0406 9.27656 22.7189 9.76884 23.219C10.2611 23.719 10.9288 24 11.625 24C12.3212 24 12.9889 23.719 13.4812 23.219C13.9734 22.7189 14.25 22.0406 14.25 21.3333V10.6667C14.25 9.95942 13.9734 9.28115 13.4812 8.78105ZM22.2312 8.78105C21.7389 8.28095 21.0712 8 20.375 8C19.6788 8 19.0111 8.28095 18.5188 8.78105C18.0266 9.28115 17.75 9.95942 17.75 10.6667V21.3333C17.75 22.0406 18.0266 22.7189 18.5188 23.219C19.0111 23.719 19.6788 24 20.375 24C21.0712 24 21.7389 23.719 22.2312 23.219C22.7234 22.7189 23 22.0406 23 21.3333V10.6667C23 9.95942 22.7234 9.28115 22.2312 8.78105Z" fill="#00a1f5"/>
</svg>
