<svg width="32" height="32" viewBox="0 0 32 32" fill="none" xmlns="http://www.w3.org/2000/svg">
<path fill-rule="evenodd" clip-rule="evenodd" d="M16 32C24.8366 32 32 24.8366 32 16C32 7.16344 24.8366 0 16 0C7.16344 0 0 7.16344 0 16C0 24.8366 7.16344 32 16 32ZM12.1576 23.8011L23.2923 17.2384C23.5073 17.1138 23.686 16.9336 23.8103 16.7162C23.9345 16.4988 24 16.2518 24 16.0004C24 15.749 23.9345 15.502 23.8103 15.2846C23.686 15.0672 23.5073 14.887 23.2923 14.7623L12.1576 8.1997C11.2109 7.64156 10 8.31702 10 9.43686V22.5621C10 23.6838 11.2127 24.3574 12.1576 23.8011Z" fill="#00a1f5"/>
</svg>
